<?xml version="1.0" standalone="no"?>
<!DOCTYPE svg PUBLIC "-//W3C//DTD SVG 20010904//EN"
 "http://www.w3.org/TR/2001/REC-SVG-20010904/DTD/svg10.dtd">
<svg version="1.0" xmlns="http://www.w3.org/2000/svg"
 width="500.000000pt" height="500.000000pt" viewBox="0 0 500.000000 500.000000"
 preserveAspectRatio="xMidYMid meet">

<g transform="translate(0.000000,500.000000) scale(0.100000,-0.100000)"
fill="#000000" stroke="none">
<path d="M1430 3943 c-155 -9 -268 -94 -322 -240 -19 -51 -22 -89 -28 -308 -7
-254 -19 -344 -64 -480 -27 -83 -78 -175 -125 -222 -43 -44 -148 -103 -183
-103 -16 0 -18 -11 -18 -89 l0 -88 28 -6 c128 -26 233 -136 294 -307 46 -132
61 -235 68 -495 6 -221 9 -257 28 -309 39 -104 120 -188 219 -223 44 -16 134
-17 1168 -18 936 0 1127 2 1165 14 103 32 193 121 232 226 19 53 22 87 28 310
7 257 13 306 62 470 54 179 168 305 301 332 27 5 27 6 27 93 0 87 0 88 -27 93
-137 28 -244 148 -302 337 -48 159 -54 209 -61 465 -6 221 -9 257 -28 308 -31
84 -56 118 -129 175 -91 71 -9 67 -1203 68 -591 0 -1100 -1 -1130 -3z m1305
-686 c150 -43 254 -133 290 -252 34 -113 12 -239 -57 -330 -37 -49 -132 -115
-165 -115 -40 0 -24 -16 30 -30 170 -43 274 -170 285 -346 3 -65 0 -96 -17
-152 -12 -39 -29 -76 -37 -83 -8 -6 -14 -17 -14 -24 0 -21 -107 -113 -158
-136 -26 -12 -81 -30 -122 -42 -68 -19 -109 -21 -447 -24 l-373 -4 0 781 0
781 363 -3 c304 -3 372 -7 422 -21z"/>
<path d="M2198 3063 c-3 -4 -5 -106 -6 -227 l-2 -219 208 5 c192 4 212 6 256
28 90 43 132 105 135 199 2 69 -19 121 -65 160 -55 48 -94 55 -315 59 -114 2
-209 0 -211 -5z"/>
<path d="M2197 2423 c-3 -5 -6 -117 -6 -251 l-2 -243 210 1 c290 2 366 24 432
127 25 41 29 56 29 118 0 56 -5 82 -23 115 -57 109 -157 140 -447 140 -104 0
-191 -3 -193 -7z"/>
</g>
</svg>
