<?xml version="1.0" standalone="no"?>
<!DOCTYPE svg PUBLIC "-//W3C//DTD SVG 20010904//EN"
 "http://www.w3.org/TR/2001/REC-SVG-20010904/DTD/svg10.dtd">
<svg version="1.0" xmlns="http://www.w3.org/2000/svg"
 width="235.000000pt" height="214.000000pt" viewBox="0 0 235.000000 214.000000"
 preserveAspectRatio="xMidYMid meet">

<g transform="translate(0.000000,214.000000) scale(0.100000,-0.100000)"
fill="#000000" stroke="none">
<path d="M645 2036 c-66 -30 -128 -101 -156 -179 -20 -54 -23 -83 -25 -221
l-1 -158 -86 -42 c-142 -70 -224 -143 -278 -246 -36 -68 -34 -176 5 -250 50
-95 178 -198 317 -255 l46 -19 -5 -125 c-5 -140 5 -207 44 -291 51 -110 124
-161 245 -168 117 -7 212 26 353 122 36 25 68 46 70 46 3 0 41 -24 85 -54 114
-76 197 -108 299 -114 98 -5 154 12 215 67 46 41 91 129 108 210 7 34 10 107
7 182 l-5 125 46 19 c139 57 267 160 317 255 39 74 41 182 5 250 -54 103 -136
176 -278 246 l-86 42 -1 158 c-2 138 -5 167 -25 221 -88 240 -339 271 -619 77
-35 -24 -65 -44 -67 -44 -2 0 -32 20 -67 44 -175 121 -343 158 -463 102z m271
-105 c50 -22 174 -99 174 -108 0 -3 -35 -44 -77 -92 -43 -47 -90 -101 -104
-119 -23 -30 -34 -35 -110 -48 -46 -8 -116 -23 -156 -33 -40 -10 -74 -16 -77
-13 -4 3 -6 56 -6 117 0 157 30 245 102 298 53 39 162 38 254 -2z m773 2 c71
-53 101 -141 101 -298 0 -61 -2 -114 -5 -117 -3 -3 -38 3 -78 13 -40 10 -110
25 -156 33 -76 13 -87 18 -110 48 -14 18 -61 72 -103 119 -43 48 -78 89 -78
92 0 9 124 86 174 108 93 41 201 41 255 2z m-421 -274 c28 -31 52 -59 52 -62
0 -3 -66 -6 -146 -6 -82 0 -144 4 -142 9 2 5 34 41 71 80 79 81 68 82 165 -21z
m128 -175 c27 -5 119 -145 201 -302 l57 -111 -58 -113 c-76 -148 -173 -295
-200 -302 -31 -8 -428 -6 -449 3 -25 9 -135 181 -199 309 l-51 103 51 102 c46
91 158 276 183 302 18 18 383 26 465 9z m-630 -76 c-18 -29 -53 -89 -77 -133
l-43 -80 -23 73 c-13 41 -26 90 -29 111 l-6 37 84 21 c45 12 93 21 105 22 22
1 22 -1 -11 -51z m905 30 l91 -22 -6 -37 c-3 -21 -16 -70 -29 -111 l-23 -73
-43 80 c-24 44 -59 104 -77 133 -40 61 -40 61 87 30z m-1129 -230 l45 -136
-48 -144 c-27 -79 -50 -147 -52 -153 -5 -12 -75 19 -148 66 -108 70 -169 152
-169 229 0 90 87 191 229 264 75 39 87 43 92 28 3 -9 26 -79 51 -154z m1547
32 c141 -136 114 -275 -78 -399 -73 -47 -143 -78 -148 -66 -2 6 -25 75 -52
154 l-48 143 42 122 c23 66 44 136 48 154 l7 33 89 -46 c49 -26 112 -68 140
-95z m-1398 -377 c23 -43 57 -102 75 -130 25 -40 30 -53 19 -53 -39 0 -187 44
-192 57 -5 13 45 203 52 203 2 0 22 -35 46 -77z m1062 -103 c2 -34 1 -34 -60
-51 -33 -9 -80 -20 -103 -24 l-41 -7 34 54 c19 29 54 89 78 133 l43 80 24 -75
c13 -41 24 -91 25 -110z m-1069 -160 c44 -11 106 -22 137 -26 56 -6 59 -8 108
-68 28 -33 75 -88 106 -120 30 -33 55 -62 55 -65 0 -4 -30 -27 -67 -51 -158
-104 -316 -119 -390 -39 -48 53 -66 116 -71 246 -5 135 -1 159 26 148 9 -3 53
-15 96 -25z m1104 -117 c-4 -136 -22 -198 -71 -252 -74 -80 -232 -65 -390 39
-37 24 -67 47 -67 50 0 4 23 31 51 61 28 30 75 84 105 120 54 66 55 67 117 74
34 4 103 17 152 29 50 13 94 19 99 15 4 -4 6 -65 4 -136z m-468 60 c0 -4 -33
-40 -72 -80 l-73 -73 -72 72 c-40 40 -73 76 -73 80 0 5 65 8 145 8 80 0 145
-3 145 -7z"/>
<path d="M1116 1270 c-145 -44 -194 -232 -88 -343 42 -45 81 -60 147 -60 90 0
155 43 189 125 66 158 -84 327 -248 278z"/>
</g>
</svg>
